<?xml version="1.0" encoding="utf-8"?>
<!-- Generator: Adobe Illustrator 24.3.0, SVG Export Plug-In . SVG Version: 6.00 Build 0)  -->
<svg version="1.1" id="Layer_1" xmlns="http://www.w3.org/2000/svg" xmlns:xlink="http://www.w3.org/1999/xlink" x="0px" y="0px"
	 viewBox="0 0 500 99.57" style="enable-background:new 0 0 500 99.57;" xml:space="preserve">
<style type="text/css">
	.st0{fill:#734A31;}
	.st1{font-family:'MyriadHebrew-Bold';}
	.st2{font-size:98.8792px;}
	.st3{fill:#BF8A6B;}
</style>
<text transform="matrix(1 0 0 1 5.6645 84.7816)" class="st0 st1 st2">Collections</text>
<g>
	<path class="st3" d="M1034.3,42.64l-222.06,0.34l-0.34-222.16C933.35-176.67,1031.42-78.8,1034.3,42.64z"/>
	<path class="st3" d="M801.89,43l-222.16,0.34c2.51-121.45,100.38-219.62,221.81-222.5L801.89,43z"/>
	<path class="st3" d="M802.24,275.52c-121.45-2.51-219.62-100.38-222.5-221.82l222.16-0.34L802.24,275.52z"/>
</g>
<path class="st3" d="M975.37,168.38c0,0.53,0,1.03-0.03,1.57c-0.82,36.75-30.48,66.42-67.24,67.24c-0.53,0.03-1.03,0.03-1.57,0.03
	s-1.03,0-1.57-0.03c-36.75-0.82-66.42-30.48-67.24-67.24c-0.03-0.53-0.03-1.03-0.03-1.57c0-0.53,0-1.03,0.03-1.57
	c0.82-36.75,30.48-66.39,67.24-67.2c0.53-0.03,1.03-0.03,1.57-0.03s1.03,0,1.57,0.03c36.75,0.82,66.42,30.45,67.24,67.2
	C975.37,167.34,975.37,167.84,975.37,168.38z"/>
<text transform="matrix(1 0 0 1 813.3345 85.4135)" class="st0 st1" style="font-size:44.1827px;">Collections</text>
</svg>
